<svg width="25" height="24" fill="none" xmlns="http://www.w3.org/2000/svg"><path d="M12.363 8c-1.09 0-2.135.421-2.906 1.172A3.947 3.947 0 008.254 12a3.95 3.95 0 001.203 2.828A4.166 4.166 0 0012.362 16a4.16 4.16 0 002.905-1.172A3.947 3.947 0 0016.471 12c0-1.06-.433-2.078-1.204-2.828A4.165 4.165 0 0012.364 8z" fill="#fff"/><path fill-rule="evenodd" clip-rule="evenodd" d="M7.432 0a7.498 7.498 0 00-5.229 2.109A7.105 7.105 0 00.037 7.2v9.6c0 1.91.78 3.74 2.166 5.091A7.498 7.498 0 007.433 24h9.86a7.498 7.498 0 005.229-2.109 7.105 7.105 0 002.166-5.091V7.2c0-1.91-.78-3.74-2.166-5.091A7.498 7.498 0 0017.292 0h-9.86zm-.821 12c0-1.485.606-2.91 1.684-3.96a5.832 5.832 0 014.068-1.64c1.525 0 2.988.59 4.067 1.64A5.526 5.526 0 0118.114 12c0 1.485-.606 2.91-1.684 3.96a5.832 5.832 0 01-4.067 1.64 5.832 5.832 0 01-4.068-1.64A5.526 5.526 0 016.611 12zm11.503-5.6h1.643V4.8h-1.643v1.6z" fill="#fff"/></svg>