<svg width="163" height="44" fill="none" xmlns="http://www.w3.org/2000/svg"><path d="M18.057 20.06c-.341-.795-.881-1.478-1.536-2.047-1.28-1.08-2.787-1.564-3.697-1.82l-.029-.029a.528.528 0 01-.199-.057l-1.308-.398c-.057-.028-.114-.028-.17-.057-.626-.199-1.793-.54-2.788-1.365-1.251-1.052-1.849-2.503-1.792-4.352.029-.796.427-1.934.512-2.19-1.308.74-2.304 1.735-2.816 2.645a7.086 7.086 0 00-.881 3.243c-.057.995.085 1.877.398 2.674a5.576 5.576 0 001.223 1.934c.91.938 2.19 1.678 3.925 2.303l1.65.598c.91.341 2.19.796 3.213 1.65 1.309 1.052 1.935 2.474 1.878 4.209a7.483 7.483 0 01-.256 1.564c-.114.455-.285.939-.626 1.308a5.093 5.093 0 01-.37.399c.654-.37 1.252-.854 1.963-1.565 1.365-1.365 2.161-3.27 2.275-5.318.029-1.252-.142-2.39-.569-3.328zm-.199-4.948v-4.864l-.028-2.503c-.797 1.764-4.494 0-4.494 0 4.295 2.901 4.522 7.367 4.522 7.367zM4.234 22.479v5.005l.057 2.56c.825-1.82 4.608 0 4.608 0-4.409-2.986-4.665-7.566-4.665-7.566zM32.343 9.024c.37-.597.853-.995 1.479-1.28-1.166.057-1.422.256-2.446.683-1.792.768-3.214 2.247-4.494 4.636-.825 1.621-1.308 3.783-1.308 6.087 0 1.223.142 2.531.398 3.697.256 1.195.654 2.276 1.109 3.129 1.08 2.02 2.446 3.3 4.181 3.925.91.341 1.024.483 1.934.54 0 0-.028 0-.028-.028-.967-.484-1.48-1.536-1.735-3.442-.285-1.877-.285-4.664-.285-8.134 0-2.873 0-4.722.143-6.229.17-1.621.483-2.702 1.052-3.584zm11.12 4.04c-1.28-2.39-2.701-3.87-4.465-4.637-1.052-.427-1.308-.626-2.474-.683.626.285 1.138.683 1.507 1.28.57.882.882 1.963 1.024 3.584.17 1.507.17 3.356.17 6.229 0 3.47-.028 6.257-.284 8.134-.256 1.906-.768 2.958-1.735 3.442l-.028.028c.91-.057 1.024-.199 1.906-.54 1.763-.626 3.128-1.906 4.18-3.925.484-.853.854-1.934 1.11-3.129a16.03 16.03 0 00.427-3.697c0-2.304-.484-4.466-1.337-6.087zm-6.285 17.377h-.028.028zm86.254-22.697h-5.005c.284.228.455.54.455.91v20.877c0 .37-.171.683-.455.91h5.461a1.144 1.144 0 01-.456-.91V7.745zm9.187 6.627V7.745h-6.598c5.233.455 6.371 5.234 6.598 6.627zm-7.167 3.982c1.763.256 2.787 1.166 3.498 3.044.029.085.086.256.114.483v-6.997a2.348 2.348 0 01-.114.484v.028c-.711 1.85-1.735 2.73-3.498 2.958zm.569 12.088h7.452V23.39c-.512 5.603-5.916 6.826-7.452 7.053zm33.489-.313l-6.456-22.384h-2.93l-.881 3.214 2.645 9.159h-6.059s6.542 2.304 7.509 5.063l1.422 4.977-.369.284h5.517l-.398-.313zm-15.216-5.09s-.939 4.038-3.698 5.403h5.745s-2.901-1.45-2.047-5.404z" fill="#fff"/><path d="M58.756 7.745h-5.205l.598.399 6.285 22.298h2.333l1.905-7.423-1.109 1.678-4.807-16.952zm13.311 22.356V8.087l.427-.342h-3.897l-1.08 4.125V30.1l-.456.341h5.461l-.455-.341zm-17.69-4.778s-.086 3.811-2.618 5.176h5.035s-2.219-.91-2.418-5.176zM86.62 30.1V8.058l.426-.313h-5.432l.455.342V30.1l-.455.341h5.461l-.455-.341zm14.83 0V8.058l.426-.313h-5.432l.455.342V30.1l-.455.341h5.461l-.455-.341zm2.986.341h6.599V23.53c-.455 5.091-5.234 6.712-6.599 6.911z" fill="#D16060"/><path stroke="#D16060" stroke-width=".948" d="M4.535 42.632h154.799"/></svg>