<svg width="20" height="24" fill="none" xmlns="http://www.w3.org/2000/svg"><path d="M8.591 15.873C7.951 19.177 7.17 22.345 4.852 24c-.714-4.994 1.05-8.744 1.87-12.726C5.324 8.958 6.89 4.3 9.836 5.448c3.625 1.412-3.14 8.607 1.401 9.507 4.742.937 6.678-8.1 3.737-11.039-4.248-4.245-12.365-.1-11.366 5.978.243 1.486 1.801 1.936.623 3.987C1.51 13.288.7 11.176.805 8.36.973 3.753 5.008.529 9.057.08c5.12-.565 9.925 1.851 10.59 6.593.746 5.353-2.311 11.15-7.787 10.733-1.484-.114-2.106-.838-3.269-1.534z" fill="#fff"/></svg>