<svg width="502" height="74" fill="none" xmlns="http://www.w3.org/2000/svg"><path d="M47.577 39.737c-1.092-2.548-2.822-4.733-4.915-6.553-4.096-3.459-8.92-5.006-11.832-5.825l-.09-.091c-.183 0-.456-.091-.638-.182l-4.187-1.274c-.182-.091-.364-.091-.546-.182-2.002-.637-5.734-1.73-8.92-4.369-4.004-3.368-5.915-8.01-5.733-13.925.09-2.549 1.365-6.19 1.638-7.009-4.187 2.367-7.372 5.552-9.01 8.465C1.613 11.886.612 15.527.521 19.168c-.182 3.185.273 6.007 1.274 8.555.82 2.275 2.185 4.369 3.914 6.19 2.912 3.003 7.008 5.369 12.56 7.371l5.279 1.912c2.912 1.092 7.008 2.548 10.285 5.279 4.186 3.367 6.189 7.918 6.007 13.47a23.935 23.935 0 01-.82 5.006c-.364 1.456-.91 3.003-2.002 4.186-.182.273-1.001 1.093-1.183 1.275 2.093-1.184 4.005-2.73 6.28-5.006 4.369-4.369 6.917-10.467 7.281-17.02.091-4.005-.455-7.645-1.82-10.649zM46.94 23.9V8.337l-.091-8.01c-2.549 5.643-14.38 0-14.38 0C46.211 9.611 46.938 23.9 46.938 23.9zM3.343 47.473v16.02l.183 8.19c2.639-5.825 14.744 0 14.744 0-14.107-9.556-14.927-24.21-14.927-24.21zm89.948-43.05c1.183-1.911 2.73-3.185 4.733-4.096-3.732.182-4.551.82-7.828 2.185-5.734 2.457-10.284 7.19-14.38 14.835-2.64 5.188-4.187 12.105-4.187 19.478 0 3.913.455 8.1 1.274 11.832.82 3.822 2.094 7.28 3.55 10.011 3.459 6.462 7.827 10.558 13.38 12.56 2.912 1.093 3.276 1.548 6.188 1.73 0 0-.09 0-.09-.091-3.095-1.548-4.733-4.915-5.553-11.013-.91-6.007-.91-14.927-.91-26.03 0-9.193 0-15.11.455-19.933.546-5.188 1.547-8.646 3.368-11.468zm35.587 12.924c-4.096-7.645-8.647-12.378-14.29-14.835-3.367-1.365-4.186-2.003-7.918-2.185 2.002.91 3.641 2.185 4.824 4.096 1.82 2.822 2.821 6.28 3.276 11.468.547 4.824.547 10.74.547 19.932 0 11.104-.091 20.024-.911 26.03-.819 6.099-2.457 9.466-5.552 11.014l-.091.09c2.913-.181 3.277-.636 6.098-1.729 5.643-2.002 10.012-6.098 13.38-12.56 1.547-2.73 2.73-6.189 3.549-10.011.911-3.732 1.366-7.919 1.366-11.832 0-7.373-1.548-14.29-4.278-19.478zm-20.115 55.61h-.091.091zM384.778.328h-16.019c.91.729 1.456 1.73 1.456 2.913v66.805c0 1.183-.546 2.185-1.456 2.913h17.475c-.91-.728-1.456-1.73-1.456-2.913V.327zm29.398 21.207V.327H393.06c16.747 1.457 20.387 16.747 21.116 21.207zM391.24 34.276c5.643.82 8.919 3.732 11.195 9.739.091.273.273.819.364 1.547v-22.39a7.748 7.748 0 01-.364 1.547v.092c-2.276 5.916-5.552 8.737-11.195 9.465zm1.82 38.682h23.846V50.386c-1.638 17.93-18.931 21.844-23.846 22.572zm107.166-1.001L479.566.327h-9.375l-2.821 10.285 8.464 29.307h-19.386s20.933 7.372 24.028 16.2l4.551 15.928-1.183.91h17.657l-1.275-1zm-48.693-16.292s-3.003 12.924-11.832 17.293h18.385s-9.283-4.642-6.553-17.293z" fill="#fff"/><path d="M177.814.327h-16.656l1.911 1.275 20.114 71.356h7.464l6.098-23.755-3.55 5.37L177.814.327zm42.595 71.538V1.42l1.365-1.093h-12.469l-3.459 13.198v58.34l-1.456 1.093h17.475l-1.456-1.093zm-56.612-15.29s-.273 12.196-8.373 16.565h16.11s-7.1-2.913-7.737-16.565zm103.183 15.29V1.33l1.365-1.002h-17.384l1.457 1.093v70.445l-1.457 1.093h17.475l-1.456-1.093zm47.456 0V1.33l1.365-1.002h-17.384l1.457 1.093v70.445l-1.457 1.093h17.475l-1.456-1.093zm9.557 1.093h21.115V50.84c-1.456 16.292-16.746 21.48-21.115 22.117z" fill="#D16060"/></svg>