<svg width="153" height="1493" fill="none" xmlns="http://www.w3.org/2000/svg"><path d="M.534 1460.4l-.077 31.86 2.167-2.87 139.139.33 2.153 2.89.085-34.74-2.167 2.87-141.3-.34zm13.935-30.93c6.662-.88 14.763-1.22 22.323-1.2 14.58.03 22.316 1.49 26.448 4.74 1.617 1.27 2.514 2.71 3.23 4.33l-1.065-6.3c-.353-2.7-1.956-9.91-4.998-17.29-3.58-8.29-8.066-14.06-13.278-17.14-3.955-2.35-8.812-3.62-14.032-3.63-11.34-.03-19.814 5.71-25.42 16.68-4.522 9.17-5.99 20.32-6.369 28.24 2.353-5.21 6.68-7.9 13.16-8.43zm130.253-46.66c1.072 3.42-.558 7.38-3.801 8.63-.901.36-1.801.54-2.702.89-12.427 3.03-25.377-1.14-37.628 3.15-27.203 9.48-28.722 42.23-28.722 42.23 1.645-10.25 50.423-9.23 50.423-9.23s21.599.23 26.872-21.72c4.91-20.33-6.047-30.07-7.484-31.16.898.72 2.149 4.33 3.042 7.21zm-3.042-7.21c0-.18-.18-.18-.18-.18l.18.18zM.93 1296.68l-.07 28.8-.006 2.88c1.444-1.79 3.427-2.87 5.767-2.86l132.119.32c2.34 0 4.318 1.09 5.753 2.89l.007-2.88.077-31.68c-1.444 1.8-3.427 2.87-5.767 2.87l-137.88-.34zm42.081-58.04l-41.94-.1-.101 41.76c2.96-33.11 33.218-40.24 42.041-41.66zm25.09 45.43c1.647-11.16 7.423-17.63 19.314-22.1.54-.18 1.62-.53 3.061-.71l-44.28-.11c1.44.19 2.52.55 3.059.73h.18c11.689 4.53 17.253 11.02 18.666 22.19zm76.509-3.42l.114-47.16-44.64-.11c35.452 3.33 43.109 37.55 44.526 47.27zm-65.255-183.92c-5.046 2.14-9.374 5.55-12.984 9.69-6.86 8.08-9.942 17.61-11.576 23.37l-.18.18c-.002.36-.183.9-.364 1.26l-2.54 8.27c-.18.36-.182.72-.363 1.08-1.27 3.96-3.447 11.33-8.682 17.62-6.68 7.9-15.868 11.66-27.568 11.27-5.04-.19-12.233-2.73-13.852-3.27 4.66 8.29 10.945 14.6 16.697 17.86 6.112 3.43 13.307 5.43 20.506 5.63 6.3.37 11.882-.51 16.927-2.48 4.504-1.61 8.65-4.3 12.258-7.71 5.954-5.75 10.654-13.84 14.64-24.81l3.806-10.43c2.174-5.75 5.073-13.84 10.489-20.31 6.68-8.27 15.689-12.2 26.669-11.82 3.239.19 6.658.74 9.896 1.65 2.878.72 5.935 1.81 8.27 3.98.539.36 2.155 1.98 2.514 2.34-2.33-4.14-5.381-7.93-9.87-12.44-8.619-8.66-20.666-13.73-33.625-14.48-7.92-.2-15.122.86-21.068 3.55zm-31.323 1.18l-30.78-.07-15.84.14c11.147 5.06-.07 28.44-.07 28.44 18.426-27.14 46.69-28.51 46.69-28.51zm46.41 86.33l31.681.08 16.201-.32c-11.508-5.25.07-29.16.07-29.16-18.967 27.85-47.951 29.4-47.951 29.4zm-50.974-134.35c-8.817-1.28-39.042-7.48-41.853-36.1l-.087 36 41.94.1zM1.706 976.166l-.07 28.804 141.48.34 2.153 2.88.007-2.88.07-28.796.007-2.88-2.167 2.875-141.48-.343zm.022-8.82c2.948-28.253 33.203-34.3 42.025-35.358l-41.94-.102-.085 35.46zm142.079-172.824L2.048 835.039l-.045 18.54 20.326 5.63 58-16.6-.092 38.34s14.68-41.365 32.155-47.442l31.522-8.924 1.794 2.344.007-2.88.078-32.04-1.986 2.515zm-32.454 96.222s25.546 6.002 34.144 23.483l.088-36.36s-9.225 18.338-34.232 12.877zm23.689-193.503c-2 8.455-8.856 14.738-17.32 16.338-3.961.71-8.462 1.059-13.682 1.047l-99.72-.242-2.153-2.885-.085 35.1 2.167-2.875 104.22.252c11.7.029 22.694-5.885 29.198-15.769 2.71-4.133 4.519-7.729 6.333-13.485v-.18c.181-.179.181-.359.181-.539.181-.36.182-.72.363-1.079.001-.54.183-1.08.184-1.8.182-.72.184-1.44.366-2.339.002-.9.185-1.98.187-3.06.372-4.679.564-9.538.215-14.399-.177-1.261-.353-2.701-.71-3.962-.177-1.26-.534-2.341-.711-3.602-.358-1.081-.715-2.161-1.253-3.243-.357-1.081-.714-2.161-1.252-3.063l-1.614-2.704c-.358-.721-1.076-1.622-1.614-2.344l-1.615-2.163c-.718-.722-1.257-1.264-1.975-1.805-.539-.722-1.077-1.263-1.796-1.625-.539-.541-1.078-1.082-1.797-1.444-.539-.541-1.078-.903-1.617-1.264-.539-.361-1.078-.723-1.618-.904l-1.617-.904c-.36-.181-.9-.362-1.259-.543l-1.079-.542c-.36-.001-.719-.182-.899-.183-.18-.18-.36-.18-.54-.181-.18-.18-.18-.18-.36-.181 11.143 7.047 15.055 27.217 12.872 36.572zM2.336 641.659l-.084 34.92s4.899-16.188 39.819-16.104c0 0-31.32-.255-39.735-18.816zm.37-78.689l-.076 31.86 2.167-2.875 139.139.337 2.153 2.885.084-34.739-2.167 2.874-141.3-.342zm13.936-30.926c6.662-.884 14.763-1.224 22.323-1.206 14.58.035 22.316 1.494 26.448 4.744 1.617 1.264 2.514 2.706 3.23 4.328l-1.065-6.303c-.353-2.701-1.956-9.905-4.998-17.292-3.58-8.289-8.066-14.06-13.279-17.132-3.954-2.35-8.811-3.622-14.031-3.634-11.34-.028-19.814 5.712-25.42 16.678-4.523 9.169-5.99 20.326-6.369 28.245 2.353-5.214 6.68-7.904 13.16-8.428zm130.253-46.665c1.072 3.423-.558 7.379-3.801 8.631-.901.358-1.801.536-2.702.893-12.428 3.03-25.377-1.141-37.628 3.149-27.203 9.474-28.722 42.231-28.722 42.231 1.645-10.256 50.422-9.238 50.422-9.238s21.6.232 26.873-21.715c4.909-20.328-6.047-30.075-7.485-31.158.899.722 2.15 4.325 3.043 7.207zm-3.043-7.207c.001-.18-.179-.181-.179-.181l.179.181zm1.098-155.832L3.191 362.857l-.045 18.54 20.327 5.629 58-16.599-.093 38.34s14.68-41.365 32.155-47.443l31.522-8.923 1.794 2.344.007-2.88.078-32.04-1.986 2.515zm-32.453 96.222s25.545 6.002 34.143 23.483l.088-36.36s-9.225 18.338-34.231 12.877zm-23.73-235.456l22.666 5.635L3.485 241.4l-.08 32.94-.008 3.6 1.99-4.496.361-.179 139.305-67.883 2.163-1.254.05-20.88-58.5-.142zM3.67 164.72l-.083 34.2s7.597-15.102 35.86-16.293c0 0-26.639-.785-35.777-17.907zm102.531 102.849s30.598.794 40.997 17.919l.083-34.38s-8.677 15.279-41.08 16.461zM45.724 118.003c-8.817-1.281-39.042-7.474-41.853-36.101l-.087 36 41.94.101zM3.962 44.283l-.07 28.799 141.48.343 2.153 2.885.007-2.88.07-28.8.007-2.88-2.167 2.875-141.48-.343zm.022-8.82C6.932 7.208 37.187 1.162 46.01.102L4.07.004l-.086 35.46z" fill="#fff"/></svg>