<svg width="31" height="31" fill="none" xmlns="http://www.w3.org/2000/svg"><path d="M29.121.77h-27.6c-.663 0-1.2.536-1.2 1.2v27.6a1.2 1.2 0 001.2 1.2h27.6c.664 0 1.2-.537 1.2-1.2V1.97c0-.664-.536-1.2-1.2-1.2zm-7.646 20.47a.298.298 0 01-.229.492h-2.208a.61.61 0 01-.462-.214l-3.255-3.881-3.255 3.881a.6.6 0 01-.461.214H9.396a.298.298 0 01-.228-.491l4.586-5.471-4.586-5.472a.298.298 0 01.228-.491h2.209a.61.61 0 01.461.214l3.255 3.881 3.255-3.881a.6.6 0 01.462-.214h2.208c.255 0 .394.296.229.491l-4.586 5.472 4.586 5.47z" fill="#fff"/></svg>