<svg width="154" height="991" fill="none" xmlns="http://www.w3.org/2000/svg"><path d="M75.04 93.44c5.062-2.109 9.416-5.485 13.057-9.589 6.921-8.03 10.077-17.54 11.754-23.283l.182-.178c.004-.36.189-.898.373-1.257l2.602-8.254c.184-.358.188-.718.371-1.076 1.3-3.948 3.534-11.305 8.817-17.553 6.739-7.853 15.956-11.54 27.652-11.063 5.038.23 12.212 2.822 13.827 3.378-4.597-8.326-10.834-14.689-16.561-17.986-6.085-3.482-13.265-5.534-20.463-5.786-6.296-.423-11.885.421-16.944 2.35-4.516 1.575-8.683 4.234-12.317 7.617-5.998 5.7-10.759 13.753-14.829 24.693l-3.884 10.402c-2.218 5.738-5.179 13.808-10.643 20.234-6.743 8.213-15.782 12.082-26.758 11.612a47.343 47.343 0 01-9.883-1.719c-2.873-.749-5.922-1.86-8.24-4.043-.537-.365-2.14-2.001-2.497-2.365 2.299 4.164 5.32 7.974 9.775 12.519 8.553 8.726 20.562 13.887 33.514 14.737 7.918.259 15.129-.749 21.095-3.39zm31.331-.945l30.779.308 15.841-.021c-11.109-5.152.285-28.439.285-28.439-18.632 26.995-46.905 28.152-46.905 28.152zM60.618 5.812l-31.679-.318-16.202.198c11.467 5.335-.293 29.158-.293 29.158C31.624 7.141 60.618 5.812 60.618 5.812zm83.353 178.732c3.756 2.378 6.245 5.463 8.006 9.441-.286-7.384-1.53-9.016-4.165-15.523-4.746-11.388-14.015-20.481-29.054-28.732-10.207-5.323-23.855-8.52-38.435-8.666-7.74-.078-16.028.739-23.424 2.285-7.575 1.544-14.44 3.996-19.869 6.822-12.848 6.711-21.034 15.269-25.104 26.209-2.218 5.738-3.125 6.449-3.542 12.205 0 0 .001-.18.181-.178 3.122-6.089 9.814-9.262 21.89-10.761 11.897-1.681 29.536-1.504 51.495-1.284 18.179.182 29.878.299 39.409 1.295 10.248 1.183 17.068 3.231 22.612 6.887zm-26.264 70.12c15.2-7.948 24.65-16.854 29.622-27.964 2.766-6.633 4.042-8.24 4.476-15.616-1.839 3.942-4.392 7.156-8.195 9.458-5.616 3.544-12.475 5.455-22.744 6.253-9.55.984-21.25.867-39.429.684-21.959-.22-39.596-.576-51.459-2.315-12.043-1.741-18.67-5.048-21.669-11.198l-.178-.182c.302 5.763 1.195 6.492 3.299 12.094 3.848 11.199 11.86 19.92 24.574 26.707 5.369 3.114 12.185 5.523 19.728 7.218 7.362 1.874 15.632 2.857 23.372 2.935 14.58.146 28.289-2.777 38.603-8.074zM8.131 213.784l.002-.18-.002.18zm138.162 547.282l.289-28.799.029-2.88c-1.458 1.786-3.449 2.846-5.789 2.823L8.709 730.886c-2.34-.024-4.31-1.124-5.731-2.938l-.03 2.88-.317 31.678c1.458-1.785 3.45-2.845 5.789-2.822l137.873 1.382zm-42.521 57.717l41.938.42.419-41.758c-3.212 33.09-33.523 39.986-42.357 41.338zm-24.744-45.611c-1.731 11.144-7.556 17.566-19.48 21.946-.542.175-1.626.524-3.068.69l44.278.443c-1.438-.194-2.514-.565-3.052-.75l-.18-.002c-11.655-4.617-17.17-11.153-18.498-22.327zm-76.532 2.834l-.473 47.157 44.638.448c-35.425-3.596-42.822-37.872-44.165-47.605zm-.144 211.95l142.062-39.438.186-18.539-20.283-5.784-58.125 16.159.385-38.338s-14.995 41.251-32.515 47.196l-31.589 8.684-1.776-2.358-.03 2.88-.32 32.038 2.005-2.5zm33.183-95.972s-25.499-6.196-33.963-23.742l-.365 36.359s9.364-18.267 34.328-12.617z" fill="#fff"/><path d="M150.395 351.776l.33-32.938-2.557 3.755L6.656 360.956l-.148 14.759 46.857 12.531-10.55-7.126 107.58-29.344zM8.078 434.594l139.313 1.396 2.133 2.722.247-24.659-26.03-7.101-115.374-1.156-2.131-2.902-.03 2.88-.317 31.678 2.189-2.858zm31.36-111.651s-24.113-.782-32.592-16.888l-.32 31.859s5.901-13.982 32.913-14.971zM7.156 526.693l139.493 1.398 1.953 2.72.315-31.498.029-2.88-2.188 2.858-139.313-1.396-2.131-2.902-.03 2.88-.288 28.799-.029 2.879 2.189-2.858zm-.94 93.849l139.492 1.398 1.953 2.719.316-31.498.029-2.88-2.189 2.858-139.313-1.396-2.131-2.901-.029 2.879-.317 31.679 2.188-2.858zm-2.35 18.877l-.418 41.758 43.737.438c-32.19-3.202-42.146-33.544-43.319-42.196z" fill="#D16060"/></svg>