<svg width="29" height="24" fill="none" xmlns="http://www.w3.org/2000/svg"><path d="M27.724.475a2.06 2.06 0 00-.985-.447 2.098 2.098 0 00-1.083.108L2.225 9.007a2.015 2.015 0 00-.985.793 1.901 1.901 0 00.215 2.336c.293.315.684.53 1.114.613l5.952 1.147v7.165c0 .387.118.765.342 1.088.223.322.54.573.911.721.372.148.78.187 1.175.111a2.056 2.056 0 001.04-.536l3.293-3.174 5 4.24c.368.314.843.488 1.335.489.214 0 .426-.033.63-.096a2.03 2.03 0 00.876-.539c.238-.25.403-.556.48-.887L28.38 2.396c.083-.347.066-.71-.05-1.049a1.95 1.95 0 00-.605-.872zm-6.1 21.565l-10.461-8.87L26.226 2.684 21.623 22.04z" fill="#fff"/></svg>