<svg width="38" height="23" fill="none" xmlns="http://www.w3.org/2000/svg"><path fill-rule="evenodd" clip-rule="evenodd" d="M37.053 2.361c.263-.828 0-1.438-1.256-1.438H31.65c-1.055 0-1.542.527-1.806 1.107 0 0-2.11 4.847-5.097 7.995-.967.913-1.406 1.203-1.934 1.203-.264 0-.66-.29-.66-1.12V2.362c0-.995-.291-1.438-1.17-1.438H14.46c-.66 0-1.056.461-1.056.9 0 .941 1.495 1.16 1.648 3.81v5.76c0 1.263-.242 1.492-.77 1.492-1.406 0-4.827-4.87-6.857-10.44C7.03 1.36 6.633.922 5.573.922h-4.15C.236.923 0 1.45 0 2.03c0 1.035 1.406 6.172 6.55 12.968 3.428 4.64 8.256 7.156 12.653 7.156 2.637 0 2.963-.558 2.963-1.521v-3.508c0-1.117.25-1.34 1.085-1.34.616 0 1.67.291 4.132 2.528 2.813 2.652 3.276 3.841 4.859 3.841h4.148c1.185 0 1.779-.558 1.438-1.662-.377-1.098-1.72-2.692-3.5-4.583-.967-1.077-2.418-2.237-2.859-2.817-.614-.745-.44-1.077 0-1.74 0 0 5.056-6.712 5.583-8.991h.001z" fill="#fff"/></svg>